<svg width="11" height="11" viewBox="0 0 11 11" fill="none" xmlns="http://www.w3.org/2000/svg">
<path fill-rule="evenodd" clip-rule="evenodd" d="M2.9047 1.81079V1.26575C2.9047 0.663475 3.40687 0.175659 4.02686 0.175659H7.39331C8.0133 0.175659 8.51546 0.663475 8.51546 1.26575V1.81079H10.1987C10.5084 1.81079 10.7598 2.05497 10.7598 2.35584C10.7598 2.6567 10.5084 2.90088 10.1987 2.90088H9.63761V8.89638C9.63761 9.79952 8.88409 10.5315 7.95439 10.5315H3.46578C2.53608 10.5315 1.78255 9.79952 1.78255 8.89638V2.90088H1.22148C0.911762 2.90088 0.6604 2.6567 0.6604 2.35584C0.6604 2.05497 0.911762 1.81079 1.22148 1.81079H2.9047ZM4.02686 1.26575H7.39331V1.81079H4.02686V1.26575ZM2.9047 2.90088H8.51546V8.89638C8.51546 9.19725 8.2641 9.44143 7.95439 9.44143H3.46578C3.15607 9.44143 2.9047 9.19725 2.9047 8.89638V2.90088Z" fill="black" fill-opacity="0.87"/>
</svg>
