<svg width="9" height="9" viewBox="0 0 9 9" fill="none" xmlns="http://www.w3.org/2000/svg">
<path d="M1.65924 0.707766C1.44612 0.495198 1.10111 0.495198 0.888002 0.707766C0.675435 0.920878 0.675435 1.26589 0.888002 1.47846L4.03563 4.62609L0.888543 7.77372C0.67543 7.98629 0.67543 8.33131 0.888543 8.54442C1.10111 8.75699 1.44612 8.75699 1.65924 8.54442L4.80633 5.39679L7.95396 8.54442C8.16707 8.75699 8.51209 8.75699 8.72465 8.54442C8.93777 8.33131 8.93777 7.98629 8.72465 7.77372L5.57756 4.62609L8.72465 1.47846C8.93777 1.26589 8.93777 0.920878 8.72465 0.707766C8.51209 0.495198 8.16707 0.495198 7.95396 0.707766L4.80633 3.8554L1.65924 0.707766Z" fill="black"/>
</svg>
